<?xml version="1.0" encoding="UTF-8" standalone="no"?>
<svg width="14px" height="14px" viewBox="0 0 14 14" version="1.1" xmlns="http://www.w3.org/2000/svg" xmlns:xlink="http://www.w3.org/1999/xlink">
    <!-- Generator: Sketch 50.2 (55047) - http://www.bohemiancoding.com/sketch -->
    <title>DetailInfoIcon3</title>
    <desc>Created with Sketch.</desc>
    <defs></defs>
    <g id="Page-1" stroke="none" stroke-width="1" fill="none" fill-rule="evenodd">
        <path d="M8.599019,9.46454345 C8.43883988,9.47789172 8.29187553,9.39780215 8.14517814,9.3175791 C6.79700382,8.53016521 5.64891992,7.40891131 4.84802428,6.07408525 C4.70132689,5.84703133 4.56784429,5.58006612 4.62123733,5.31310091 C4.71454167,4.80600048 5.35539166,4.60577657 5.54226731,4.12523919 C5.71566122,3.71130963 5.48887427,3.24412051 5.22190906,2.88385095 C4.78128297,2.28317922 4.22078951,1.76259705 3.57993951,1.37536401 C3.273063,1.18862185 2.93935648,1.02844272 2.57881996,1.0017462 C0.963813907,0.921656633 0.870376083,3.61800529 1.08394825,4.67251788 C1.3107352,5.76707525 1.85814737,6.78140958 2.49886388,7.70257305 C4.00721734,9.89155431 6.07619774,11.747096 8.58553726,12.6279477 C9.46665595,12.9350912 10.4143825,13.1218334 11.3219307,12.9083947 C11.775905,12.8016086 12.2030494,12.6013847 12.5232742,12.2541964 C12.8437659,11.9204899 13.0172933,11.440086 12.9372037,10.9861117 C12.8569807,10.5189226 12.5367559,10.1453047 12.2163976,9.81159823 C11.7492085,9.33106085 11.2284929,8.90391651 10.6679994,8.53016521 C10.5610798,8.46342391 10.4542938,8.3966826 10.3342929,8.38320086 C10.2008103,8.36998608 10.0806759,8.43672738 9.96040811,8.50346869 C9.62670159,8.69034434 9.3196916,8.91713129 9.05272638,9.17088172 C8.93272552,9.29088258 8.79924291,9.41115041 8.63906379,9.43784693 C8.62558204,9.45106171 8.61236727,9.46454345 8.599019,9.46454345" id="Fill-1" stroke="#202020" stroke-width="0.5"></path>
    </g>
</svg>