<?xml version="1.0" encoding="UTF-8" standalone="no"?>
<svg width="81px" height="13px" viewBox="0 0 81 13" version="1.1" xmlns="http://www.w3.org/2000/svg" xmlns:xlink="http://www.w3.org/1999/xlink">
    <!-- Generator: Sketch 50.2 (55047) - http://www.bohemiancoding.com/sketch -->
    <title>Ratings</title>
    <desc>Created with Sketch.</desc>
    <defs></defs>
    <g id="Page-1" stroke="none" stroke-width="1" fill="none" fill-rule="evenodd">
        <g id="Group-4" transform="translate(1.000000, 1.000000)" stroke="#B69F58">
            <polygon id="Star-2" fill="#B69F58" points="5.7063391 9 2.17962758 10.854102 2.85316955 6.92705098 5.68434189e-14 4.14589803 3.94298334 3.57294902 5.7063391 0 7.46969485 3.57294902 11.4126782 4.14589803 8.55950865 6.92705098 9.23305061 10.854102"></polygon>
            <polygon id="Star-2-Copy" fill="#B69F58" points="22.7063391 9 19.1796276 10.854102 19.8531695 6.92705098 17 4.14589803 20.9429833 3.57294902 22.7063391 0 24.4696949 3.57294902 28.4126782 4.14589803 25.5595086 6.92705098 26.2330506 10.854102"></polygon>
            <polygon id="Star-2-Copy-2" fill="#B69F58" points="39.7063391 9 36.1796276 10.854102 36.8531695 6.92705098 34 4.14589803 37.9429833 3.57294902 39.7063391 0 41.4696949 3.57294902 45.4126782 4.14589803 42.5595086 6.92705098 43.2330506 10.854102"></polygon>
            <polygon id="Star-2-Copy-3" fill="#B69F58" points="56.7063391 9 53.1796276 10.854102 53.8531695 6.92705098 51 4.14589803 54.9429833 3.57294902 56.7063391 0 58.4696949 3.57294902 62.4126782 4.14589803 59.5595086 6.92705098 60.2330506 10.854102"></polygon>
            <polygon id="Star-2-Copy-4" points="73.7063391 9 70.1796276 10.854102 70.8531695 6.92705098 68 4.14589803 71.9429833 3.57294902 73.7063391 0 75.4696949 3.57294902 79.4126782 4.14589803 76.5595086 6.92705098 77.2330506 10.854102"></polygon>
        </g>
    </g>
</svg>